<svg width="18" height="18" viewBox="0 0 18 18" fill="none" xmlns="http://www.w3.org/2000/svg">
    <path d="M6.46967 12.4697C6.17678 12.7626 6.17678 13.2374 6.46967 13.5303C6.76256 13.8232 7.23744 13.8232 7.53033 13.5303L6.46967 12.4697ZM11.5303 9.53033C11.8232 9.23744 11.8232 8.76256 11.5303 8.46967C11.2374 8.17678 10.7626 8.17678 10.4697 8.46967L11.5303 9.53033ZM7.53033 4.46967C7.23744 4.17678 6.76256 4.17678 6.46967 4.46967C6.17678 4.76256 6.17678 5.23744 6.46967 5.53033L7.53033 4.46967ZM8.96967 8.03033C9.26256 8.32322 9.73744 8.32322 10.0303 8.03033C10.3232 7.73744 10.3232 7.26256 10.0303 6.96967L8.96967 8.03033ZM7.53033 13.5303L11.5303 9.53033L10.4697 8.46967L6.46967 12.4697L7.53033 13.5303ZM10.0303 6.96967L7.53033 4.46967L6.46967 5.53033L8.96967 8.03033L10.0303 6.96967Z"
          style="fill: currentColor; stroke: none;"/>
</svg>
