<svg width="18" height="18" viewBox="0 0 18 18" fill="none" xmlns="http://www.w3.org/2000/svg">
    <circle cx="9" cy="9" r="7" fill="#4BCAAD"/>
    <path fill-rule="evenodd" clip-rule="evenodd" d="M10.75 7C11.5784 7 12.25 6.32843 12.25 5.5C12.25 4.67157 11.5784 4 10.75 4C9.92157 4 9.25 4.67157 9.25 5.5C9.25 6.32843 9.92157 7 10.75 7ZM7.52543 8.08397C7.60756 8.02922 7.70406 8 7.80278 8H9.0285L8.2942 9.95815L7.59531 11.2394C7.5077 11.4001 7.33934 11.5 7.15637 11.5H4.75C4.47386 11.5 4.25 11.7239 4.25 12C4.25 12.2761 4.47386 12.5 4.75 12.5H7.15637C7.70528 12.5 8.21036 12.2002 8.47321 11.7183L8.9273 10.8858L10.151 11.7016C10.2545 11.7706 10.3285 11.8757 10.3587 11.9963L10.7649 13.6213C10.8319 13.8892 11.1034 14.052 11.3713 13.9851C11.6392 13.9181 11.802 13.6466 11.7351 13.3787L11.3288 11.7538C11.2383 11.3918 11.0162 11.0765 10.7057 10.8695L9.35748 9.97073L10.2182 7.67556C10.2757 7.52201 10.2544 7.34999 10.161 7.2152C10.0676 7.08042 9.91399 7 9.75 7H7.80278C7.50664 7 7.21713 7.08766 6.97073 7.25192L5.72265 8.08397C5.49289 8.23715 5.4308 8.54759 5.58397 8.77735C5.73715 9.00711 6.04759 9.0692 6.27735 8.91603L7.52543 8.08397ZM11.3536 8.14645C11.1583 7.95118 10.8417 7.95118 10.6464 8.14645C10.4512 8.34171 10.4512 8.65829 10.6464 8.85355L11.3536 9.56066C11.6349 9.84197 12.0164 10 12.4142 10H13.5C13.7761 10 14 9.77614 14 9.5C14 9.22386 13.7761 9 13.5 9H12.4142C12.2816 9 12.1544 8.94732 12.0607 8.85355L11.3536 8.14645Z" fill="white"/>
</svg>
