<svg width="18" height="18" viewBox="0 0 18 18" fill="none" xmlns="http://www.w3.org/2000/svg">
<path d="M1 9C1 4.58172 4.58172 1 9 1C13.4183 1 17 4.58172 17 9C17 13.4183 13.4183 17 9 17C4.58172 17 1 13.4183 1 9Z" fill="#4BCAAD"/>
<path d="M5 4.73317C5 4.14407 5.47756 3.6665 6.06667 3.6665H11.9333C12.5224 3.6665 13 4.14407 13 4.73317V13.2665C13 13.8556 12.5224 14.3332 11.9333 14.3332H6.06667C5.47756 14.3332 5 13.8556 5 13.2665V4.73317Z" fill="white"/>
<path fill-rule="evenodd" clip-rule="evenodd" d="M6.10547 12.7335C6.10547 12.6072 6.2078 12.5049 6.33404 12.5049H11.6674C11.7936 12.5049 11.8959 12.6072 11.8959 12.7335C11.8959 12.8597 11.7936 12.962 11.6674 12.962H6.33404C6.2078 12.962 6.10547 12.8597 6.10547 12.7335Z" fill="#4BCAAD"/>
<path d="M7.59961 10.7441V7.25H10.5997V10.7441C10.5997 10.8519 10.4783 10.9152 10.3899 10.8533L9.2526 10.0572C9.16078 9.99289 9.03857 9.99289 8.94675 10.0572L7.8094 10.8533C7.72103 10.9152 7.59961 10.8519 7.59961 10.7441Z" fill="#4BCAAD"/>
<circle cx="9.10009" cy="7.10009" r="2.10009" fill="#4BCAAD" stroke="white" stroke-width="0.133333"/>
<circle cx="9.10003" cy="7.09954" r="0.600025" fill="white"/>
</svg>
