<svg width="18" height="18" viewBox="0 0 18 18" fill="none" xmlns="http://www.w3.org/2000/svg">
    <path d="M7.27409 8.00397L6.03516 7.28867C5.72575 7.11004 5.53516 6.77992 5.53516 6.42265V3.57735C5.53516 3.22008 5.72576 2.88996 6.03516 2.71132L8.49926 1.28868C8.80866 1.11004 9.18986 1.11004 9.49926 1.28868L11.9634 2.71132C12.2728 2.88996 12.4634 3.22008 12.4634 3.57735V6.42805C12.4634 6.78241 12.2758 7.11032 11.9704 7.28999L8.49193 9.33607C8.18649 9.51574 7.99894 9.84364 7.99894 10.198V14.4197C7.99894 14.7785 7.80667 15.1099 7.49511 15.2879L4.99798 16.715C4.68916 16.8915 4.30984 16.8906 4.0018 16.7128L1.53516 15.2887C1.22576 15.11 1.03516 14.7799 1.03516 14.4226V11.5774C1.03516 11.2201 1.22576 10.89 1.53516 10.7113L3.99926 9.28868C4.30866 9.11004 4.68986 9.11004 4.99926 9.28867L6.23517 10.0022" stroke="#336CFF" stroke-width="1.5" stroke-linecap="round" stroke-linejoin="round"/>
    <path fill-rule="evenodd" clip-rule="evenodd" d="M13 9.28868C13.3094 9.11004 13.6906 9.11004 14 9.28868L16.4641 10.7113C16.7735 10.89 16.9641 11.2201 16.9641 11.5774V14.4226C16.9641 14.7799 16.7735 15.11 16.4641 15.2887L14 16.7113C13.6906 16.89 13.3094 16.89 13 16.7113L10.5359 15.2887C10.2265 15.11 10.0359 14.7799 10.0359 14.4226V11.5774C10.0359 11.2201 10.2265 10.89 10.5359 10.7113L13 9.28868Z" stroke="#336CFF" stroke-width="1.5" stroke-linejoin="round"/>
</svg>
