<svg width="18" height="18" viewBox="0 0 18 18" fill="none" xmlns="http://www.w3.org/2000/svg">
    <path style="fill:currentColor"
          d="M12.4697 11.5303C12.7626 11.8232 13.2374 11.8232 13.5303 11.5303C13.8232 11.2374 13.8232 10.7626 13.5303 10.4697L12.4697 11.5303ZM9.53033 6.46967C9.23744 6.17678 8.76256 6.17678 8.46967 6.46967C8.17678 6.76256 8.17678 7.23744 8.46967 7.53033L9.53033 6.46967ZM4.46967 10.4697C4.17678 10.7626 4.17678 11.2374 4.46967 11.5303C4.76256 11.8232 5.23744 11.8232 5.53033 11.5303L4.46967 10.4697ZM8.03033 9.03033C8.32322 8.73744 8.32322 8.26256 8.03033 7.96967C7.73744 7.67678 7.26256 7.67678 6.96967 7.96967L8.03033 9.03033ZM13.5303 10.4697L9.53033 6.46967L8.46967 7.53033L12.4697 11.5303L13.5303 10.4697ZM6.96967 7.96967L4.46967 10.4697L5.53033 11.5303L8.03033 9.03033L6.96967 7.96967Z"
          fill="#85888C"/>
</svg>
