<svg width="18" height="18" viewBox="0 0 18 18" fill="none" xmlns="http://www.w3.org/2000/svg">
    <path fill-rule="evenodd" clip-rule="evenodd"
          d="M3.75 8C3.75 5.65279 5.65279 3.75 8 3.75C10.3472 3.75 12.25 5.65279 12.25 8C12.25 10.3472 10.3472 12.25 8 12.25C5.65279 12.25 3.75 10.3472 3.75 8ZM8 2.25C4.82436 2.25 2.25 4.82436 2.25 8C2.25 11.1756 4.82436 13.75 8 13.75C9.31533 13.75 10.5275 13.3083 11.4963 12.5653L14.5424 15.6113C14.8352 15.9042 15.3101 15.9042 15.603 15.6113C15.8959 15.3184 15.8959 14.8435 15.603 14.5506L12.5581 11.5057C13.3055 10.5353 13.75 9.31956 13.75 8C13.75 4.82436 11.1756 2.25 8 2.25Z"
          style="fill: currentColor; stroke: none;"/>
</svg>
