<svg width="18" height="18" viewBox="0 0 18 18" fill="none" xmlns="http://www.w3.org/2000/svg">
    <path d="M5.53033 6.46967C5.23744 6.17678 4.76256 6.17678 4.46967 6.46967C4.17678 6.76256 4.17678 7.23744 4.46967 7.53033L5.53033 6.46967ZM8.46967 11.5303C8.76256 11.8232 9.23744 11.8232 9.53033 11.5303C9.82322 11.2374 9.82322 10.7626 9.53033 10.4697L8.46967 11.5303ZM13.5303 7.53033C13.8232 7.23744 13.8232 6.76256 13.5303 6.46967C13.2374 6.17678 12.7626 6.17678 12.4697 6.46967L13.5303 7.53033ZM9.96967 8.96967C9.67678 9.26256 9.67678 9.73744 9.96967 10.0303C10.2626 10.3232 10.7374 10.3232 11.0303 10.0303L9.96967 8.96967ZM4.46967 7.53033L8.46967 11.5303L9.53033 10.4697L5.53033 6.46967L4.46967 7.53033ZM11.0303 10.0303L13.5303 7.53033L12.4697 6.46967L9.96967 8.96967L11.0303 10.0303Z"
          style="fill: currentColor; stroke: none;"/>
</svg>
