<svg width="19" height="18" viewBox="0 0 19 18" fill="none" xmlns="http://www.w3.org/2000/svg">
    <path fill="#85888C" style="fill:currentColor"
          d="M7.43378 12.4697C7.14089 12.7626 7.14089 13.2374 7.43378 13.5303C7.72667 13.8232 8.20155 13.8232 8.49444 13.5303L7.43378 12.4697ZM12.4944 9.53033C12.7873 9.23744 12.7873 8.76256 12.4944 8.46967C12.2015 8.17678 11.7267 8.17678 11.4338 8.46967L12.4944 9.53033ZM8.49444 4.46967C8.20155 4.17678 7.72667 4.17678 7.43378 4.46967C7.14089 4.76256 7.14089 5.23744 7.43378 5.53033L8.49444 4.46967ZM9.93378 8.03033C10.2267 8.32322 10.7015 8.32322 10.9944 8.03033C11.2873 7.73744 11.2873 7.26256 10.9944 6.96967L9.93378 8.03033ZM8.49444 13.5303L12.4944 9.53033L11.4338 8.46967L7.43378 12.4697L8.49444 13.5303ZM10.9944 6.96967L8.49444 4.46967L7.43378 5.53033L9.93378 8.03033L10.9944 6.96967Z"/>
</svg>
