<svg width="180" height="174" viewBox="0 0 180 174" fill="none" xmlns="http://www.w3.org/2000/svg">
<g filter="url(#filter0_d_607_182903)">
<rect x="32.0039" y="38" width="115.11" height="115.11" rx="57.5551" fill="white"/>
</g>
<path d="M98.6634 104.694L111.431 117.461" stroke="#336CFF" stroke-width="4" stroke-linecap="round" stroke-linejoin="round"/>
<circle cx="85.8876" cy="91.8895" r="18.0556" stroke="#F5991B" stroke-width="4"/>
<ellipse cx="39.0099" cy="45.5807" rx="1.5451" ry="1.5451" fill="#85888C"/>
<ellipse cx="8.88016" cy="30.9021" rx="2.31766" ry="2.31765" fill="#85888C"/>
<ellipse cx="126.31" cy="3.86258" rx="2.31766" ry="2.31766" fill="#85888C"/>
<ellipse cx="177.298" cy="41.7176" rx="2.31765" ry="2.31765" fill="#85888C"/>
<circle cx="56.7786" cy="162.236" r="2.31766" fill="#85888C"/>
<ellipse cx="161.846" cy="88.071" rx="1.5451" ry="1.5451" fill="#85888C"/>
<circle cx="146.397" cy="142.15" r="1.5451" fill="#85888C"/>
<path d="M63.5497 3.86276C63.5497 5.44382 62.268 6.72552 60.687 6.72552C59.1059 6.72552 57.8242 5.44382 57.8242 3.86276C57.8242 2.2817 59.1059 1 60.687 1C62.268 1 63.5497 2.2817 63.5497 3.86276Z" stroke="#85888C" stroke-width="2"/>
<path d="M6.72552 76.4824C6.72552 78.0635 5.44381 79.3452 3.86276 79.3452C2.2817 79.3452 1 78.0635 1 76.4824C1 74.9013 2.2817 73.6196 3.86276 73.6196C5.44381 73.6196 6.72552 74.9013 6.72552 76.4824Z" stroke="#85888C" stroke-width="2"/>
<path d="M178.999 115.883C178.999 117.464 177.717 118.746 176.136 118.746C174.555 118.746 173.273 117.464 173.273 115.883C173.273 114.302 174.555 113.02 176.136 113.02C177.717 113.02 178.999 114.302 178.999 115.883Z" stroke="#85888C" stroke-width="2"/>
<path d="M129.218 27.812C129.218 29.393 127.936 30.6747 126.355 30.6747C124.774 30.6747 123.492 29.393 123.492 27.812C123.492 26.2309 124.774 24.9492 126.355 24.9492C127.936 24.9492 129.218 26.2309 129.218 27.812Z" stroke="#85888C" stroke-width="2"/>
<ellipse cx="88.5021" cy="20.8591" rx="1.5451" ry="1.5451" fill="#85888C"/>
<circle cx="20.5178" cy="138.287" r="1.5451" fill="#85888C"/>
<path d="M42.4883 1.15869C50.6001 15.0646 69.7594 28.9705 96.9532 28.9705C130.945 28.9705 126.31 11.5881 117.812 13.9058C109.314 16.2234 111.632 34.3784 125.538 42.4902" stroke="#336CFF" stroke-width="2" stroke-linecap="round"/>
<path d="M43.6445 19.314C46.2197 22.4042 53.3014 29.1254 61.0269 31.2885" stroke="#336CFF" stroke-width="2" stroke-linecap="round"/>
<defs>
<filter id="filter0_d_607_182903" x="17.0039" y="28" width="145.109" height="145.11" filterUnits="userSpaceOnUse" color-interpolation-filters="sRGB">
<feFlood flood-opacity="0" result="BackgroundImageFix"/>
<feColorMatrix in="SourceAlpha" type="matrix" values="0 0 0 0 0 0 0 0 0 0 0 0 0 0 0 0 0 0 127 0" result="hardAlpha"/>
<feOffset dy="5"/>
<feGaussianBlur stdDeviation="7.5"/>
<feComposite in2="hardAlpha" operator="out"/>
<feColorMatrix type="matrix" values="0 0 0 0 0 0 0 0 0 0 0 0 0 0 0 0 0 0 0.15 0"/>
<feBlend mode="normal" in2="BackgroundImageFix" result="effect1_dropShadow_607_182903"/>
<feBlend mode="normal" in="SourceGraphic" in2="effect1_dropShadow_607_182903" result="shape"/>
</filter>
</defs>
</svg>
