<svg width="180" height="173" viewBox="0 0 180 173" fill="none" xmlns="http://www.w3.org/2000/svg">
<g filter="url(#filter0_d_1693_495950)">
<g filter="url(#filter1_d_1693_495950)">
<rect x="32.4492" y="37.082" width="115.11" height="115.11" rx="57.5551" fill="white"/>
</g>
<path d="M80.7496 105.453H86.0185C88.2283 105.453 90.0195 107.245 90.0185 109.455L90.0166 113.815C90.0156 116.024 88.225 117.814 86.0166 117.814H77.6594C74.2461 117.814 71.479 115.047 71.479 111.633V80.7312C71.479 77.3178 74.2461 74.5508 77.6594 74.5508H102.381C105.794 74.5508 108.561 77.3178 108.561 80.7312V111.633C108.561 115.047 105.794 117.814 102.381 117.814H99.3779" stroke="#336CFF" stroke-width="4" stroke-linecap="round"/>
<path d="M80.7498 86.9113H99.291" stroke="#F5991B" stroke-width="4" stroke-linecap="round"/>
<path d="M80.7498 96.1818H99.291" stroke="#F5991B" stroke-width="4" stroke-linecap="round"/>
</g>
<ellipse cx="39.0114" cy="45.5803" rx="1.5451" ry="1.5451" fill="#85888C"/>
<ellipse cx="8.88211" cy="30.9016" rx="2.31766" ry="2.31765" fill="#85888C"/>
<ellipse cx="126.31" cy="3.86258" rx="2.31765" ry="2.31766" fill="#85888C"/>
<ellipse cx="177.298" cy="41.718" rx="2.31765" ry="2.31765" fill="#85888C"/>
<circle cx="56.7803" cy="162.236" r="2.31766" fill="#85888C"/>
<ellipse cx="161.847" cy="88.0705" rx="1.5451" ry="1.5451" fill="#85888C"/>
<circle cx="146.396" cy="142.15" r="1.5451" fill="#85888C"/>
<path d="M63.5517 3.86276C63.5517 5.44382 62.27 6.72552 60.6889 6.72552C59.1079 6.72552 57.8262 5.44382 57.8262 3.86276C57.8262 2.2817 59.1079 1 60.6889 1C62.27 1 63.5517 2.2817 63.5517 3.86276Z" stroke="#85888C" stroke-width="2"/>
<path d="M6.72552 76.4829C6.72552 78.0639 5.44381 79.3456 3.86276 79.3456C2.2817 79.3456 1 78.0639 1 76.4829C1 74.9018 2.2817 73.6201 3.86276 73.6201C5.44381 73.6201 6.72552 74.9018 6.72552 76.4829Z" stroke="#85888C" stroke-width="2"/>
<path d="M179 115.882C179 117.463 177.718 118.745 176.137 118.745C174.556 118.745 173.274 117.463 173.274 115.882C173.274 114.301 174.556 113.02 176.137 113.02C177.718 113.02 179 114.301 179 115.882Z" stroke="#85888C" stroke-width="2"/>
<path d="M129.219 27.812C129.219 29.393 127.937 30.6747 126.356 30.6747C124.775 30.6747 123.493 29.393 123.493 27.812C123.493 26.2309 124.775 24.9492 126.356 24.9492C127.937 24.9492 129.219 26.2309 129.219 27.812Z" stroke="#85888C" stroke-width="2"/>
<ellipse cx="88.5007" cy="20.8586" rx="1.5451" ry="1.5451" fill="#85888C"/>
<ellipse cx="20.5163" cy="138.286" rx="1.5451" ry="1.5451" fill="#85888C"/>
<path d="M42.4873 1.15918C50.5991 15.0651 69.7584 28.971 96.9522 28.971C130.944 28.971 126.309 11.5886 117.811 13.9063C109.313 16.2239 111.631 34.3789 125.537 42.4907" stroke="#336CFF" stroke-width="2" stroke-linecap="round"/>
<path d="M43.646 19.3135C46.2212 22.4037 53.3029 29.1249 61.0284 31.288" stroke="#336CFF" stroke-width="2" stroke-linecap="round"/>
<defs>
<filter id="filter0_d_1693_495950" x="17.4448" y="27.082" width="145.115" height="145.11" filterUnits="userSpaceOnUse" color-interpolation-filters="sRGB">
<feFlood flood-opacity="0" result="BackgroundImageFix"/>
<feColorMatrix in="SourceAlpha" type="matrix" values="0 0 0 0 0 0 0 0 0 0 0 0 0 0 0 0 0 0 127 0" result="hardAlpha"/>
<feOffset dy="5"/>
<feGaussianBlur stdDeviation="7.5"/>
<feComposite in2="hardAlpha" operator="out"/>
<feColorMatrix type="matrix" values="0 0 0 0 0 0 0 0 0 0 0 0 0 0 0 0 0 0 0.15 0"/>
<feBlend mode="normal" in2="BackgroundImageFix" result="effect1_dropShadow_1693_495950"/>
<feBlend mode="normal" in="SourceGraphic" in2="effect1_dropShadow_1693_495950" result="shape"/>
</filter>
<filter id="filter1_d_1693_495950" x="17.4492" y="27.082" width="145.11" height="145.11" filterUnits="userSpaceOnUse" color-interpolation-filters="sRGB">
<feFlood flood-opacity="0" result="BackgroundImageFix"/>
<feColorMatrix in="SourceAlpha" type="matrix" values="0 0 0 0 0 0 0 0 0 0 0 0 0 0 0 0 0 0 127 0" result="hardAlpha"/>
<feOffset dy="5"/>
<feGaussianBlur stdDeviation="7.5"/>
<feComposite in2="hardAlpha" operator="out"/>
<feColorMatrix type="matrix" values="0 0 0 0 0 0 0 0 0 0 0 0 0 0 0 0 0 0 0.15 0"/>
<feBlend mode="normal" in2="BackgroundImageFix" result="effect1_dropShadow_1693_495950"/>
<feBlend mode="normal" in="SourceGraphic" in2="effect1_dropShadow_1693_495950" result="shape"/>
</filter>
</defs>
</svg>
