<svg width="80" height="74" viewBox="0 0 80 74" fill="none" xmlns="http://www.w3.org/2000/svg">
    <rect x="14.2246" y="17.5859" width="51.1601" height="51.1601" rx="25.58" fill="white"/>
    <rect x="14.7246" y="18.0859" width="50.1601" height="50.1601" rx="25.08" stroke="#D5D8DB" stroke-opacity="0.5"/>
    <path d="M27.7734 45.6953V52.6953C27.7734 53.7999 28.6689 54.6953 29.7734 54.6953H49.7734C50.878 54.6953 51.7734 53.7999 51.7734 52.6953V45.6953M27.7734 45.6953H32.5977C33.3721 45.6953 34 46.3232 34 47.0977V47.0977C34 47.8721 34.6279 48.5 35.4023 48.5H44.5977C45.3721 48.5 46 47.8721 46 47.0977V47.0977C46 46.3232 46.6279 45.6953 47.4023 45.6953H51.7734M27.7734 45.6953L32.217 40.5M51.7734 45.6953L47.6814 40.5" stroke="#D5D8DB" stroke-opacity="0.5" stroke-width="2" stroke-linejoin="round"/>
    <path d="M35.5 37.5H38.5M35.5 41.5H44.5" stroke="#D5D8DB" stroke-width="2" stroke-linecap="round" stroke-linejoin="round"/>
    <path d="M47.5 44.6953V33.5C47.5 32.3954 46.6046 31.5 45.5 31.5H34C32.8954 31.5 32 32.3954 32 33.5V44.6953" stroke="#D5D8DB" stroke-width="2"/>
    <ellipse cx="17.3391" cy="20.9523" rx="0.68671" ry="0.686712" fill="#D5D8DB" fill-opacity="0.5"/>
    <ellipse cx="3.94804" cy="14.4285" rx="1.03007" ry="1.03007" fill="#D5D8DB" fill-opacity="0.5"/>
    <ellipse cx="56.1375" cy="2.41288" rx="1.03007" ry="1.03007" fill="#D5D8DB" fill-opacity="0.5"/>
    <ellipse cx="78.7996" cy="19.2371" rx="1.03007" ry="1.03007" fill="#D5D8DB" fill-opacity="0.5"/>
    <ellipse cx="25.2351" cy="72.7996" rx="1.03007" ry="1.03007" fill="#D5D8DB" fill-opacity="0.5"/>
    <ellipse cx="71.9328" cy="39.8391" rx="0.686714" ry="0.68671" fill="#D5D8DB" fill-opacity="0.5"/>
    <ellipse cx="65.0656" cy="63.8742" rx="0.686714" ry="0.686712" fill="#D5D8DB" fill-opacity="0.5"/>
    <path d="M28.1894 2.41209C28.1894 3.0841 27.6446 3.62888 26.9726 3.62888C26.3006 3.62888 25.7559 3.0841 25.7559 2.41209C25.7559 1.74008 26.3006 1.19531 26.9726 1.19531C27.6446 1.19531 28.1894 1.74008 28.1894 2.41209Z" stroke="#D5D8DB" stroke-opacity="0.5"/>
    <path d="M2.93356 34.6894C2.93356 35.3615 2.38879 35.9062 1.71678 35.9062C1.04477 35.9062 0.5 35.3615 0.5 34.6894C0.5 34.0174 1.04477 33.4727 1.71678 33.4727C2.38879 33.4727 2.93356 34.0174 2.93356 34.6894Z" stroke="#D5D8DB" stroke-opacity="0.5"/>
    <circle cx="78.2832" cy="52.1973" r="1.21678" stroke="#D5D8DB" stroke-opacity="0.5"/>
    <circle cx="56.1582" cy="13.0566" r="1.21678" stroke="#D5D8DB" stroke-opacity="0.5"/>
    <ellipse cx="39.3332" cy="9.96406" rx="0.686712" ry="0.686713" fill="#D5D8DB" fill-opacity="0.5"/>
    <ellipse cx="9.11835" cy="62.1555" rx="0.686713" ry="0.686716" fill="#D5D8DB" fill-opacity="0.5"/>
    <path d="M18.8828 1.21094C22.4881 7.39135 31.0033 13.5718 43.0894 13.5718C58.1971 13.5718 56.137 5.84625 52.3601 6.87632C48.5831 7.90638 49.6132 15.9753 55.7936 19.5805" stroke="#D5D8DB" stroke-linecap="round"/>
    <path d="M19.3984 9.27734C20.543 10.6508 23.6904 13.638 27.124 14.5994" stroke="#D5D8DB" stroke-linecap="round"/>
</svg>
