<svg width="18" height="18" viewBox="0 0 18 18" fill="none" xmlns="http://www.w3.org/2000/svg">
<path d="M5.53033 5.53033C5.82322 5.23744 5.82322 4.76256 5.53033 4.46967C5.23744 4.17678 4.76256 4.17678 4.46967 4.46967L5.53033 5.53033ZM1.53033 8.46967C1.23744 8.17678 0.762563 8.17678 0.46967 8.46967C0.176777 8.76256 0.176777 9.23744 0.46967 9.53033L1.53033 8.46967ZM4.46967 13.5303C4.76256 13.8232 5.23744 13.8232 5.53033 13.5303C5.82322 13.2374 5.82322 12.7626 5.53033 12.4697L4.46967 13.5303ZM1.96967 6.96967C1.67678 7.26256 1.67678 7.73744 1.96967 8.03033C2.26256 8.32322 2.73744 8.32322 3.03033 8.03033L1.96967 6.96967ZM0.46967 9.53033L4.46967 13.5303L5.53033 12.4697L1.53033 8.46967L0.46967 9.53033ZM4.46967 4.46967L1.96967 6.96967L3.03033 8.03033L5.53033 5.53033L4.46967 4.46967Z" fill="#282B2E" stroke="none"/>
</svg>
