<svg width="18" height="18" viewBox="0 0 18 18" fill="none" xmlns="http://www.w3.org/2000/svg">
<path fill-rule="evenodd" clip-rule="evenodd" d="M4.9331 2.75C3.93311 2.75 3.34077 3.86402 3.89363 4.69336L6.03943 7.91218C6.17631 8.11751 6.24935 8.35876 6.24935 8.60553V11.446C6.24935 11.9445 6.38481 12.4335 6.64124 12.8609L7.85623 14.8859C8.06934 15.2411 8.53004 15.3562 8.88522 15.1431C9.24041 14.93 9.35558 14.4693 9.14247 14.1141L7.92748 12.0892C7.81092 11.8949 7.74935 11.6726 7.74935 11.446V8.60553C7.74935 8.06263 7.58865 7.53188 7.28752 7.08015L5.40083 4.25H5.40928H5.42396H5.43866H5.45337H5.46809H5.48283H5.49758H5.51235H5.52712H5.54191H5.55672H5.57153H5.58636H5.6012H5.61605H5.63092H5.6458H5.66069H5.67559H5.6905H5.70543H5.72036H5.73531H5.75027H5.76524H5.78023H5.79522H5.81022H5.82524H5.84027H5.8553H5.87035H5.88541H5.90048H5.91556H5.93065H5.94575H5.96086H5.97597H5.9911H6.00624H6.02139H6.03655H6.05171H6.06689H6.08208H6.09727H6.11247H6.12768H6.1429H6.15813H6.17337H6.18862H6.20387H6.21913H6.2344H6.24968H6.26497H6.28026H6.29556H6.31087H6.32619H6.34151H6.35685H6.37218H6.38753H6.40288H6.41824H6.4336H6.44898H6.46436H6.47974H6.49513H6.51053H6.52593H6.54134H6.55676H6.57218H6.5876H6.60304H6.61847H6.63391H6.64936H6.66482H6.68027H6.69574H6.7112H6.72668H6.74215H6.75763H6.77312H6.78861H6.8041H6.8196H6.8351H6.85061H6.86612H6.88163H6.89715H6.91266H6.92819H6.94371H6.95924H6.97477H6.99031H7.00585H7.02139H7.03693H7.05248H7.06802H7.08357H7.09912H7.11468H7.13023H7.14579H7.16135H7.17691H7.19247H7.20804H7.2236H7.23917H7.25474H7.2703H7.28587H7.30144H7.31701H7.33258H7.34815H7.36372H7.3793H7.39487H7.41044H7.42601H7.44158H7.45715H7.47272H7.48829H7.50386H7.51943H7.535H7.55057H7.56613H7.58169H7.59726H7.61282H7.62838H7.64394H7.65949H7.67505H7.6906H7.70615H7.7217H7.73725H7.75279H7.76833H7.78387H7.79941H7.81494H7.83047H7.846H7.86153H7.87705H7.89257H7.90808H7.92359H7.9391H7.9546H7.9701H7.9856H8.00109H8.01658H8.03206H8.04754H8.06302H8.07849H8.09395H8.10941H8.12487H8.14032H8.15576H8.1712H8.18664H8.20207H8.21749H8.23291H8.24832H8.26373H8.27913H8.29452H8.30991H8.32529H8.34067H8.35604H8.3714H8.38676H8.40211H8.41745H8.43278H8.44811H8.46343H8.47874H8.49405H8.50935H8.52464H8.53992H8.5552H8.57046H8.58572H8.60097H8.61622H8.63145H8.64667H8.66189H8.6771H8.6923H8.70749H8.72267H8.73784H8.753H8.76816H8.7833H8.79843H8.81356H8.82867H8.84378H8.85887H8.87396H8.88903H8.9041H8.91915H8.93419H8.94922H8.96425H8.97926H8.99426H9.00925H9.02422H9.03919H9.05414H9.06909H9.08402H9.09894H9.11385H9.12874H9.14363H9.1585H9.17336H9.18821H9.20304H9.21786H9.23267H9.24747H9.26226H9.27703H9.29178H9.30653H9.32126H9.33598H9.35068H9.36537H9.38005H9.39471H9.40936H9.424H9.43862H9.45323H9.46782H9.4824H9.49696H9.51151H9.52604H9.54056H9.55507H9.56956H9.58403H9.59849H9.61293H9.62736H9.64177H9.65617H9.67055H9.68491H9.69926H9.71359H9.72791H9.74221H9.75649H9.77075H9.785H9.79924H9.81345H9.82765H9.84183H9.856H9.87014H9.88427H9.89839H9.91248H9.92656H9.94061H9.95465H9.96868H9.98268H9.99667H10.0106H10.0246H10.0385H10.0524H10.0663H10.0802H10.094H10.1079H10.1217H10.1355H10.1493H10.163H10.1768H10.1905H10.2042H10.2179H10.2315H10.2452H10.2588H10.2724H10.286H10.2995H10.313H10.3266H10.3401H10.3535H10.367H10.3804H10.3938H10.4072H10.4206H10.4339H10.4472H10.4605H10.4738H10.4871H10.5003H10.5135H10.5267H10.5399H10.553H10.5661H10.5792H10.5923H10.6054H10.6184H10.6314H10.6444H10.6573H10.6703H10.6832H10.6961H10.7089H10.7218H10.7346H10.7474H10.7602H10.7729H10.7856H10.7983H10.811H10.8236H10.8362H10.8488H10.8614H10.8739H10.8865H10.8989H10.9114H10.9239H10.9363H10.9487H10.961H10.9734H10.9857H10.9979H11.0102H11.0224H11.0346H11.0468H11.059H11.0711H11.0832H11.0953H11.1073H11.1193H11.1313H11.1433H11.1552H11.1671H11.179H11.1908H11.2026H11.2144H11.2262H11.2379H11.2496H11.2613H11.2729H11.2846H11.2962H11.3077H11.3192H11.3307H11.3422H11.3537H11.3651H11.3765H11.3878H11.3991H11.4104H11.4217H11.4329H11.4441H11.4553H11.4664H11.4775H11.4886H11.4997H11.5107H11.5217H11.5326H11.5436H11.5545H11.5653H11.5761H11.5869H11.5977H11.6062L9.37602 7.58291C9.14567 7.92717 9.23801 8.39298 9.58226 8.62333C9.92652 8.85368 10.3923 8.76134 10.6227 8.41709L13.1131 4.69515C13.6681 3.86584 13.0756 2.75 12.0748 2.75H12.0657H12.0566H12.0474H12.0382H12.0289H12.0196H12.0103H12.0009H11.9915H11.9821H11.9726H11.9631H11.9535H11.944H11.9344H11.9247H11.915H11.9053H11.8955H11.8857H11.8759H11.866H11.8561H11.8462H11.8362H11.8262H11.8162H11.8061H11.796H11.7859H11.7757H11.7655H11.7553H11.745H11.7347H11.7244H11.714H11.7036H11.6931H11.6827H11.6722H11.6616H11.651H11.6404H11.6298H11.6191H11.6084H11.5977H11.5869H11.5761H11.5653H11.5545H11.5436H11.5326H11.5217H11.5107H11.4997H11.4886H11.4775H11.4664H11.4553H11.4441H11.4329H11.4217H11.4104H11.3991H11.3878H11.3765H11.3651H11.3537H11.3422H11.3307H11.3192H11.3077H11.2962H11.2846H11.2729H11.2613H11.2496H11.2379H11.2262H11.2144H11.2026H11.1908H11.179H11.1671H11.1552H11.1433H11.1313H11.1193H11.1073H11.0953H11.0832H11.0711H11.059H11.0468H11.0346H11.0224H11.0102H10.9979H10.9857H10.9734H10.961H10.9487H10.9363H10.9239H10.9114H10.8989H10.8865H10.8739H10.8614H10.8488H10.8362H10.8236H10.811H10.7983H10.7856H10.7729H10.7602H10.7474H10.7346H10.7218H10.7089H10.6961H10.6832H10.6703H10.6573H10.6444H10.6314H10.6184H10.6054H10.5923H10.5792H10.5661H10.553H10.5399H10.5267H10.5135H10.5003H10.4871H10.4738H10.4605H10.4472H10.4339H10.4206H10.4072H10.3938H10.3804H10.367H10.3535H10.3401H10.3266H10.313H10.2995H10.286H10.2724H10.2588H10.2452H10.2315H10.2179H10.2042H10.1905H10.1768H10.163H10.1493H10.1355H10.1217H10.1079H10.094H10.0802H10.0663H10.0524H10.0385H10.0246H10.0106H9.99667H9.98268H9.96868H9.95465H9.94061H9.92656H9.91248H9.89839H9.88427H9.87014H9.856H9.84183H9.82765H9.81345H9.79924H9.785H9.77075H9.75649H9.74221H9.72791H9.71359H9.69926H9.68491H9.67055H9.65617H9.64177H9.62736H9.61293H9.59849H9.58403H9.56956H9.55507H9.54056H9.52604H9.51151H9.49696H9.4824H9.46782H9.45323H9.43862H9.424H9.40936H9.39471H9.38005H9.36537H9.35068H9.33598H9.32126H9.30653H9.29178H9.27703H9.26226H9.24747H9.23267H9.21786H9.20304H9.18821H9.17336H9.1585H9.14363H9.12874H9.11385H9.09894H9.08402H9.06909H9.05414H9.03919H9.02422H9.00925H8.99426H8.97926H8.96425H8.94922H8.93419H8.91915H8.9041H8.88903H8.87396H8.85887H8.84378H8.82867H8.81356H8.79843H8.7833H8.76816H8.753H8.73784H8.72267H8.70749H8.6923H8.6771H8.66189H8.64667H8.63145H8.61622H8.60097H8.58572H8.57046H8.5552H8.53992H8.52464H8.50935H8.49405H8.47874H8.46343H8.44811H8.43278H8.41745H8.40211H8.38676H8.3714H8.35604H8.34067H8.32529H8.30991H8.29452H8.27913H8.26373H8.24832H8.23291H8.21749H8.20207H8.18664H8.1712H8.15576H8.14032H8.12487H8.10941H8.09395H8.07849H8.06302H8.04754H8.03206H8.01658H8.00109H7.9856H7.9701H7.9546H7.9391H7.92359H7.90808H7.89257H7.87705H7.86153H7.846H7.83047H7.81494H7.79941H7.78387H7.76833H7.75279H7.73725H7.7217H7.70615H7.6906H7.67505H7.65949H7.64394H7.62838H7.61282H7.59726H7.58169H7.56613H7.55057H7.535H7.51943H7.50386H7.48829H7.47272H7.45715H7.44158H7.42601H7.41044H7.39487H7.3793H7.36372H7.34815H7.33258H7.31701H7.30144H7.28587H7.2703H7.25474H7.23917H7.2236H7.20804H7.19247H7.17691H7.16135H7.14579H7.13023H7.11468H7.09912H7.08357H7.06802H7.05248H7.03693H7.02139H7.00585H6.99031H6.97477H6.95924H6.94371H6.92819H6.91266H6.89715H6.88163H6.86612H6.85061H6.8351H6.8196H6.8041H6.78861H6.77312H6.75763H6.74215H6.72668H6.7112H6.69574H6.68027H6.66482H6.64936H6.63391H6.61847H6.60304H6.5876H6.57218H6.55676H6.54134H6.52593H6.51053H6.49513H6.47974H6.46436H6.44898H6.4336H6.41824H6.40288H6.38753H6.37218H6.35685H6.34151H6.32619H6.31087H6.29556H6.28026H6.26497H6.24968H6.2344H6.21913H6.20387H6.18862H6.17337H6.15813H6.1429H6.12768H6.11247H6.09727H6.08208H6.06689H6.05171H6.03655H6.02139H6.00624H5.9911H5.97597H5.96086H5.94575H5.93065H5.91556H5.90048H5.88541H5.87035H5.8553H5.84027H5.82524H5.81022H5.79522H5.78023H5.76524H5.75027H5.73531H5.72036H5.70543H5.6905H5.67559H5.66069H5.6458H5.63092H5.61605H5.6012H5.58636H5.57153H5.55672H5.54191H5.52712H5.51235H5.49758H5.48283H5.46809H5.45337H5.43866H5.42396H5.40928H5.39461H5.37995H5.36531H5.35068H5.33607H5.32147H5.30689H5.29232H5.27776H5.26322H5.2487H5.23418H5.21969H5.20521H5.19074H5.17629H5.16186H5.14744H5.13304H5.11865H5.10428H5.08992H5.07558H5.06126H5.04695H5.03266H5.01839H5.00413H4.98989H4.97567H4.96146H4.94727H4.9331ZM9.34045 9.25C8.92624 9.25 8.59045 9.58579 8.59045 10C8.59045 10.4142 8.92624 10.75 9.34045 10.75H13.0109C13.4251 10.75 13.7609 10.4142 13.7609 10C13.7609 9.58579 13.4251 9.25 13.0109 9.25H9.34045ZM9.34045 11.5994C8.92624 11.5994 8.59045 11.9352 8.59045 12.3494C8.59045 12.7636 8.92624 13.0994 9.34045 13.0994H10.9135C11.3277 13.0994 11.6635 12.7636 11.6635 12.3494C11.6635 11.9352 11.3277 11.5994 10.9135 11.5994H9.34045Z" stroke="none" fill="currentColor"/>
</svg>
