<svg width="18" height="19" viewBox="0 0 18 19" fill="none" xmlns="http://www.w3.org/2000/svg">
<path d="M6.46967 13.2431C6.17678 13.536 6.17678 14.0109 6.46967 14.3038C6.76256 14.5967 7.23744 14.5967 7.53033 14.3038L6.46967 13.2431ZM11.5303 10.3038C11.8232 10.0109 11.8232 9.536 11.5303 9.24311C11.2374 8.95021 10.7626 8.95021 10.4697 9.24311L11.5303 10.3038ZM7.53033 5.24311C7.23744 4.95021 6.76256 4.95021 6.46967 5.24311C6.17678 5.536 6.17678 6.01087 6.46967 6.30377L7.53033 5.24311ZM8.96967 8.80377C9.26256 9.09666 9.73744 9.09666 10.0303 8.80377C10.3232 8.51087 10.3232 8.036 10.0303 7.74311L8.96967 8.80377ZM7.53033 14.3038L11.5303 10.3038L10.4697 9.24311L6.46967 13.2431L7.53033 14.3038ZM10.0303 7.74311L7.53033 5.24311L6.46967 6.30377L8.96967 8.80377L10.0303 7.74311Z" fill="currentColor" stroke="none"/>
</svg>
