<svg width="18" height="19" viewBox="0 0 18 19" fill="none" xmlns="http://www.w3.org/2000/svg">
<path d="M11.5303 6.30377C11.8232 6.01087 11.8232 5.536 11.5303 5.24311C11.2374 4.95021 10.7626 4.95021 10.4697 5.24311L11.5303 6.30377ZM6.46967 9.24311C6.17678 9.536 6.17678 10.0109 6.46967 10.3038C6.76256 10.5967 7.23744 10.5967 7.53033 10.3038L6.46967 9.24311ZM10.4697 14.3038C10.7626 14.5967 11.2374 14.5967 11.5303 14.3038C11.8232 14.0109 11.8232 13.536 11.5303 13.2431L10.4697 14.3038ZM9.03033 10.7431C8.73744 10.4502 8.26256 10.4502 7.96967 10.7431C7.67678 11.036 7.67678 11.5109 7.96967 11.8038L9.03033 10.7431ZM10.4697 5.24311L6.46967 9.24311L7.53033 10.3038L11.5303 6.30377L10.4697 5.24311ZM7.96967 11.8038L10.4697 14.3038L11.5303 13.2431L9.03033 10.7431L7.96967 11.8038Z" fill="currentColor" stroke="none"/>
</svg>
