<svg width="18" height="18" viewBox="0 0 18 18" fill="none" xmlns="http://www.w3.org/2000/svg">
<path d="M5.53033 7.78033C5.23744 8.07322 4.76256 8.07322 4.46967 7.78033C4.17678 7.48744 4.17678 7.01256 4.46967 6.71967L5.53033 7.78033ZM8.46967 3.78033C8.17678 3.48744 8.17678 3.01256 8.46967 2.71967C8.76256 2.42678 9.23744 2.42678 9.53033 2.71967L8.46967 3.78033ZM13.5303 6.71967C13.8232 7.01256 13.8232 7.48744 13.5303 7.78033C13.2374 8.07322 12.7626 8.07322 12.4697 7.78033L13.5303 6.71967ZM7.10312 4.08622C7.39602 3.79332 7.87089 3.79332 8.16378 4.08622C8.45668 4.37911 8.45668 4.85398 8.16378 5.14688L7.10312 4.08622ZM9.53033 2.71967L13.5303 6.71967L12.4697 7.78033L8.46967 3.78033L9.53033 2.71967ZM4.46967 6.71967L7.10312 4.08622L8.16378 5.14688L5.53033 7.78033L4.46967 6.71967Z" fill="#85888c"/>
<path d="M5.53033 10.2197C5.23744 9.92678 4.76256 9.92678 4.46967 10.2197C4.17678 10.5126 4.17678 10.9874 4.46967 11.2803L5.53033 10.2197ZM8.46967 15.2803C8.76256 15.5732 9.23744 15.5732 9.53033 15.2803C9.82322 14.9874 9.82322 14.5126 9.53033 14.2197L8.46967 15.2803ZM13.5303 11.2803C13.8232 10.9874 13.8232 10.5126 13.5303 10.2197C13.2374 9.92678 12.7626 9.92678 12.4697 10.2197L13.5303 11.2803ZM9.84748 12.8419C9.55459 13.1348 9.55459 13.6096 9.84748 13.9025C10.1404 14.1954 10.6152 14.1954 10.9081 13.9025L9.84748 12.8419ZM4.46967 11.2803L8.46967 15.2803L9.53033 14.2197L5.53033 10.2197L4.46967 11.2803ZM10.9081 13.9025L13.5303 11.2803L12.4697 10.2197L9.84748 12.8419L10.9081 13.9025Z" fill="#336CFF"/>
</svg>
