<svg width="18" height="18" viewBox="0 0 18 18" fill="none" xmlns="http://www.w3.org/2000/svg">
<path fill-rule="evenodd" clip-rule="evenodd" d="M5.53033 7.78033C5.23744 8.07322 4.76256 8.07322 4.46967 7.78033C4.17678 7.48744 4.17678 7.01256 4.46967 6.71967L6.96967 4.21967C7.26256 3.92678 7.73744 3.92678 8.03033 4.21967C8.32322 4.51256 8.32322 4.98744 8.03033 5.28033L5.53033 7.78033ZM13.5303 6.71967C13.8232 7.01256 13.8232 7.48744 13.5303 7.78033C13.2374 8.07322 12.7626 8.07322 12.4697 7.78033L8.46967 3.78033C8.17678 3.48744 8.17678 3.01256 8.46967 2.71967C8.76256 2.42678 9.23744 2.42678 9.53033 2.71967L13.5303 6.71967ZM5.53036 10.2197C5.23747 9.92681 4.76259 9.92681 4.4697 10.2197C4.17681 10.5126 4.17681 10.9875 4.4697 11.2804L8.4697 15.2804C8.76259 15.5733 9.23747 15.5733 9.53036 15.2804C9.82325 14.9875 9.82325 14.5126 9.53036 14.2197L5.53036 10.2197ZM13.5304 11.2804C13.8233 10.9875 13.8233 10.5126 13.5304 10.2197C13.2375 9.92681 12.7626 9.92681 12.4697 10.2197L10.1406 12.5488C9.84773 12.8417 9.84773 13.3165 10.1406 13.6094C10.4335 13.9023 10.9084 13.9023 11.2013 13.6094L13.5304 11.2804Z" fill="currentColor"/>
</svg>
