<svg width="18" height="18" viewBox="0 0 18 18" fill="none" xmlns="http://www.w3.org/2000/svg">
<path d="M12.4697 10.2197C12.7626 9.92678 13.2374 9.92678 13.5303 10.2197C13.8232 10.5126 13.8232 10.9874 13.5303 11.2803L12.4697 10.2197ZM9.53033 14.2197C9.82322 14.5126 9.82322 14.9874 9.53033 15.2803C9.23744 15.5732 8.76256 15.5732 8.46967 15.2803L9.53033 14.2197ZM4.46967 11.2803C4.17678 10.9874 4.17678 10.5126 4.46967 10.2197C4.76256 9.92678 5.23744 9.92678 5.53033 10.2197L4.46967 11.2803ZM10.8969 13.9138C10.604 14.2067 10.1291 14.2067 9.83622 13.9138C9.54332 13.6209 9.54332 13.146 9.83622 12.8531L10.8969 13.9138ZM8.46967 15.2803L4.46967 11.2803L5.53033 10.2197L9.53033 14.2197L8.46967 15.2803ZM13.5303 11.2803L10.8969 13.9138L9.83622 12.8531L12.4697 10.2197L13.5303 11.2803Z" fill="#85888c"/>
<path d="M12.4697 7.78033C12.7626 8.07322 13.2374 8.07322 13.5303 7.78033C13.8232 7.48744 13.8232 7.01256 13.5303 6.71967L12.4697 7.78033ZM9.53033 2.71967C9.23744 2.42678 8.76256 2.42678 8.46967 2.71967C8.17678 3.01256 8.17678 3.48744 8.46967 3.78033L9.53033 2.71967ZM4.46967 6.71967C4.17678 7.01256 4.17678 7.48744 4.46967 7.78033C4.76256 8.07322 5.23744 8.07322 5.53033 7.78033L4.46967 6.71967ZM8.15252 5.15814C8.44541 4.86525 8.44541 4.39037 8.15252 4.09748C7.85963 3.80459 7.38475 3.80459 7.09186 4.09748L8.15252 5.15814ZM13.5303 6.71967L9.53033 2.71967L8.46967 3.78033L12.4697 7.78033L13.5303 6.71967ZM7.09186 4.09748L4.46967 6.71967L5.53033 7.78033L8.15252 5.15814L7.09186 4.09748Z" fill="#336CFF"/>
</svg>
