<svg width="18" height="18" stroke="none" viewBox="0 0 18 18" fill="none" xmlns="http://www.w3.org/2000/svg">
    <circle cx="9" cy="9" r="7" stroke="#336CFF" stroke-width="1.5"/>
    <path fill-rule="evenodd" clip-rule="evenodd" d="M8.25 12C8.25 12.4142 8.58579 12.75 9 12.75C9.41421 12.75 9.75 12.4142 9.75 12V9.75H12C12.4142 9.75 12.75 9.41421 12.75 9C12.75 8.58579 12.4142 8.25 12 8.25H9.75V6C9.75 5.58579 9.41421 5.25 9 5.25C8.58579 5.25 8.25 5.58579 8.25 6V8.25H6C5.58579 8.25 5.25 8.58579 5.25 9C5.25 9.41421 5.58579 9.75 6 9.75H8.25V12Z" fill="#F5991B"/>
</svg>
