<svg width="18" height="18" viewBox="0 0 18 18" fill="none" xmlns="http://www.w3.org/2000/svg">
    <path d="M6.49843 16.0773C6.11391 15.6792 5.29176 14.6819 4.03197 13.0855C3.36355 12.2385 3 11.191 3 10.112V4.18342C3 3.69195 3.29968 3.25016 3.75633 3.06845L8.13932 1.32436C8.71193 1.09651 9.35024 1.09765 9.92203 1.32757L14.2477 3.06691C14.7022 3.24967 15 3.69038 15 4.18027V10.169C15 11.228 14.6497 12.2573 14.0038 13.0966C11.6061 16.2118 9.93228 16.7694 8.98222 16.7694L9 14.2316V8.82274" stroke="#D5D8DB" stroke-width="1.5" stroke-linecap="round" stroke-linejoin="round"/>
    <path d="M9 14.2312V8.82227" stroke="#D5D8DB" stroke-width="1.5" stroke-linecap="round" stroke-linejoin="round"/>
    <circle cx="9" cy="7" r="1.5" fill="white" stroke="#D5D8DB" stroke-width="1.5"/>
    <path d="M9 11.0752H10" stroke="#D5D8DB" stroke-width="1.5" stroke-linecap="round" stroke-linejoin="round"/>
</svg>
