<svg width="18" height="18" viewBox="0 0 18 18" fill="none" stroke="none" xmlns="http://www.w3.org/2000/svg">
    <path d="M9.375 2.625H7C4.79086 2.625 3 4.41586 3 6.625V11.375C3 13.5841 4.79086 15.375 7 15.375H11.75C13.9591 15.375 15.75 13.5841 15.75 11.375V9" stroke="#336CFF" stroke-width="1.5" stroke-linecap="round"/>
    <path d="M15.2574 2.74247L15.7878 2.21214V2.21214L15.2574 2.74247ZM6.83666 11.0332L6.1403 10.7547L6.83666 11.0332ZM6.96664 11.1632L7.24519 11.8596L6.96664 11.1632ZM8.87361 10.3134L9.40394 10.8437L8.87361 10.3134ZM8.53789 10.5347L8.25935 9.83838L8.53789 10.5347ZM15.4974 2.98245L14.9671 3.51278L15.4974 2.98245ZM14.3103 2.50248L13.78 1.97215L14.3103 2.50248ZM15.0174 2.50248L15.5478 1.97215L15.0174 2.50248ZM7.68653 9.12628L7.1562 8.59595L7.68653 9.12628ZM7.46516 9.462L8.16152 9.74054L7.46516 9.462ZM8.21686 9.65661L14.8407 3.03281L13.78 1.97215L7.1562 8.59595L8.21686 9.65661ZM14.9671 3.15923L8.34328 9.78303L9.40394 10.8437L16.0277 4.21989L14.9671 3.15923ZM6.7688 9.18345L6.1403 10.7547L7.53302 11.3118L8.16152 9.74054L6.7688 9.18345ZM7.24519 11.8596L8.81644 11.2311L8.25935 9.83838L6.6881 10.4669L7.24519 11.8596ZM14.4871 3.03281L14.7271 3.2728L15.7878 2.21214L15.5478 1.97215L14.4871 3.03281ZM14.7271 3.2728L14.9671 3.51278L16.0277 2.45212L15.7878 2.21214L14.7271 3.2728ZM6.1403 10.7547C5.86275 11.4486 6.55133 12.1371 7.24519 11.8596L6.6881 10.4669C7.2187 10.2546 7.74526 10.7812 7.53302 11.3118L6.1403 10.7547ZM8.34328 9.78303C8.31934 9.80697 8.29079 9.8258 8.25935 9.83838L8.81644 11.2311C9.03648 11.1431 9.23636 11.0113 9.40394 10.8437L8.34328 9.78303ZM16.0277 4.21989C16.5159 3.73174 16.5159 2.94028 16.0277 2.45212L14.9671 3.51278C14.8695 3.41515 14.8695 3.25686 14.9671 3.15923L16.0277 4.21989ZM14.8407 3.03281C14.743 3.13044 14.5847 3.13044 14.4871 3.03281L15.5478 1.97215C15.0596 1.48399 14.2682 1.48399 13.78 1.97215L14.8407 3.03281ZM7.1562 8.59595C6.98862 8.76353 6.85682 8.96341 6.7688 9.18345L8.16152 9.74054C8.17409 9.70911 8.19292 9.68055 8.21686 9.65661L7.1562 8.59595Z" fill="#336CFF"/>
</svg>
