<svg width="18" height="18" viewBox="0 0 18 18" fill="none" stroke="none" xmlns="http://www.w3.org/2000/svg">
    <circle cx="9" cy="9" r="7" stroke="#336CFF" stroke-width="1.5"/>
    <path fill-rule="evenodd" clip-rule="evenodd" d="M6.26411 6.68654H5.1748C4.76059 6.68654 4.4248 7.02233 4.4248 7.43654C4.4248 7.85076 4.76059 8.18654 5.1748 8.18654H6.50756C6.51878 8.70989 6.69151 9.19347 6.97792 9.58943C6.95897 9.59875 6.9401 9.6082 6.9213 9.61777C5.79815 10.1899 4.94239 11.2123 4.59238 12.4498C4.47965 12.8483 4.71137 13.2628 5.10995 13.3756C5.50853 13.4883 5.92303 13.2566 6.03576 12.858C6.27032 12.0287 6.84579 11.3397 7.60218 10.9543C8.01979 10.7416 8.4928 10.6213 8.99609 10.6213C9.49938 10.6213 9.9724 10.7416 10.39 10.9543C11.1464 11.3397 11.7219 12.0287 11.9564 12.858C12.0692 13.2566 12.4837 13.4883 12.8822 13.3756C13.2808 13.2628 13.5125 12.8483 13.3998 12.4498C13.0498 11.2123 12.194 10.1899 11.0709 9.61777C11.0521 9.6082 11.0332 9.59875 11.0143 9.58943C11.3007 9.19347 11.4734 8.70989 11.4846 8.18654H12.8269C13.2411 8.18654 13.5769 7.85076 13.5769 7.43654C13.5769 7.02233 13.2411 6.68654 12.8269 6.68654H11.7376C11.4087 5.48369 10.308 4.59961 9.00085 4.59961C7.69368 4.59961 6.59299 5.48369 6.26411 6.68654ZM9.00085 6.09961C9.46124 6.09961 9.86728 6.33233 10.1078 6.68654H7.89394C8.13441 6.33233 8.54045 6.09961 9.00085 6.09961ZM8.99609 9.1213C8.46806 9.1213 8.03667 8.70753 8.00845 8.18654H9.98374C9.95552 8.70753 9.52413 9.1213 8.99609 9.1213Z" fill="#336CFF"/>
</svg>
