<svg width="18" height="18" viewBox="0 0 18 18" fill="none" stroke="none" xmlns="http://www.w3.org/2000/svg">
    <path d="M8.99316 10.5C10.3739 10.5 11.4932 9.38071 11.4932 8C11.4932 7.64445 11.4189 7.30623 11.2851 7H6.70119C6.56739 7.30623 6.49316 7.64445 6.49316 8C6.49316 9.38071 7.61245 10.5 8.99316 10.5Z" stroke="#336CFF" stroke-width="1.5"/>
    <path d="M3.5 6.25C3.08579 6.25 2.75 6.58579 2.75 7C2.75 7.41421 3.08579 7.75 3.5 7.75V6.25ZM14.5 7.75C14.9142 7.75 15.25 7.41421 15.25 7C15.25 6.58579 14.9142 6.25 14.5 6.25V7.75ZM6.75 7C6.75 5.75736 7.75736 4.75 9 4.75V3.25C6.92893 3.25 5.25 4.92893 5.25 7H6.75ZM9 4.75C10.2426 4.75 11.25 5.75736 11.25 7H12.75C12.75 4.92893 11.0711 3.25 9 3.25V4.75ZM3.5 7.75H14.5V6.25H3.5V7.75Z" fill="#F5991B"/>
    <path d="M3.7002 14.5C4.12036 13.0145 5.14907 11.7844 6.5 11.0962C7.24839 10.715 8.09567 10.5 8.99316 10.5C9.89065 10.5 10.7379 10.715 11.4863 11.0962C12.8373 11.7844 13.866 13.0145 14.2861 14.5" stroke="#336CFF" stroke-width="1.5" stroke-linecap="round"/>
</svg>
