<svg width="18" height="18" viewBox="0 0 18 18" fill="none" stroke="none" xmlns="http://www.w3.org/2000/svg">
    <circle cx="9" cy="9" r="7" stroke="#336CFF" stroke-width="1.5"/>
    <path fill-rule="evenodd" clip-rule="evenodd" d="M6.26435 6.68654H5.17505C4.76084 6.68654 4.42505 7.02233 4.42505 7.43654C4.42505 7.85076 4.76084 8.18654 5.17505 8.18654H6.50781C6.51902 8.70989 6.69176 9.19347 6.97816 9.58943C6.95921 9.59875 6.94034 9.6082 6.92154 9.61777C5.79839 10.1899 4.94264 11.2123 4.59262 12.4498C4.47989 12.8483 4.71162 13.2628 5.11019 13.3756C5.50877 13.4883 5.92327 13.2566 6.036 12.858C6.27056 12.0287 6.84604 11.3397 7.60242 10.9543C8.02003 10.7416 8.49305 10.6213 8.99634 10.6213C9.49963 10.6213 9.97264 10.7416 10.3902 10.9543C11.1466 11.3397 11.7221 12.0287 11.9567 12.858C12.0694 13.2566 12.4839 13.4883 12.8825 13.3756C13.2811 13.2628 13.5128 12.8483 13.4001 12.4498C13.05 11.2123 12.1943 10.1899 11.0711 9.61777C11.0523 9.6082 11.0335 9.59875 11.0145 9.58943C11.3009 9.19347 11.4737 8.70989 11.4849 8.18654H12.8271C13.2414 8.18654 13.5771 7.85076 13.5771 7.43654C13.5771 7.02233 13.2414 6.68654 12.8271 6.68654H11.7378C11.409 5.48369 10.3083 4.59961 9.00109 4.59961C7.69392 4.59961 6.59324 5.48369 6.26435 6.68654ZM9.00109 6.09961C9.46149 6.09961 9.86753 6.33233 10.108 6.68654H7.89419C8.13466 6.33233 8.5407 6.09961 9.00109 6.09961ZM8.99634 9.1213C8.4683 9.1213 8.03691 8.70753 8.00869 8.18654H9.98398C9.95576 8.70753 9.52437 9.1213 8.99634 9.1213Z" fill="#F5991B"/>
</svg>
