<svg width="180" height="209" viewBox="0 0 180 209" fill="none" xmlns="http://www.w3.org/2000/svg">
    <g filter="url(#filter0_d_321_94643)">
        <rect x="32.0044" y="38" width="115.11" height="115.11" rx="57.5551" fill="white"/>
    </g>
    <path d="M98.662 104.694L111.429 117.461" stroke="#336CFF" stroke-width="4" stroke-linecap="round" stroke-linejoin="round"/>
    <circle cx="85.8886" cy="91.8895" r="18.0556" stroke="#F5991B" stroke-width="4"/>
    <ellipse cx="39.0114" cy="45.5803" rx="1.5451" ry="1.5451" fill="#85888C"/>
    <ellipse cx="8.88211" cy="30.9016" rx="2.31766" ry="2.31765" fill="#85888C"/>
    <ellipse cx="126.31" cy="3.86258" rx="2.31766" ry="2.31766" fill="#85888C"/>
    <ellipse cx="177.298" cy="41.718" rx="2.31765" ry="2.31765" fill="#85888C"/>
    <circle cx="56.7801" cy="162.236" r="2.31766" fill="#85888C"/>
    <ellipse cx="161.847" cy="88.0705" rx="1.5451" ry="1.5451" fill="#85888C"/>
    <circle cx="146.396" cy="142.15" r="1.5451" fill="#85888C"/>
    <path d="M63.5517 3.86276C63.5517 5.44382 62.27 6.72552 60.6889 6.72552C59.1079 6.72552 57.8262 5.44382 57.8262 3.86276C57.8262 2.2817 59.1079 1 60.6889 1C62.27 1 63.5517 2.2817 63.5517 3.86276Z" stroke="#85888C" stroke-width="2"/>
    <path d="M6.72552 76.4829C6.72552 78.0639 5.44381 79.3456 3.86276 79.3456C2.2817 79.3456 1 78.0639 1 76.4829C1 74.9018 2.2817 73.6201 3.86276 73.6201C5.44381 73.6201 6.72552 74.9018 6.72552 76.4829Z" stroke="#85888C" stroke-width="2"/>
    <path d="M179 115.882C179 117.463 177.718 118.745 176.137 118.745C174.556 118.745 173.274 117.463 173.274 115.882C173.274 114.301 174.556 113.02 176.137 113.02C177.718 113.02 179 114.301 179 115.882Z" stroke="#85888C" stroke-width="2"/>
    <path d="M129.219 27.812C129.219 29.393 127.937 30.6747 126.356 30.6747C124.775 30.6747 123.493 29.393 123.493 27.812C123.493 26.2309 124.775 24.9492 126.356 24.9492C127.937 24.9492 129.219 26.2309 129.219 27.812Z" stroke="#85888C" stroke-width="2"/>
    <ellipse cx="88.5007" cy="20.8586" rx="1.5451" ry="1.5451" fill="#85888C"/>
    <circle cx="20.5163" cy="138.286" r="1.5451" fill="#85888C"/>
    <path d="M42.4873 1.15918C50.5991 15.0651 69.7584 28.971 96.9522 28.971C130.944 28.971 126.309 11.5886 117.811 13.9063C109.313 16.2239 111.631 34.3789 125.537 42.4907" stroke="#336CFF" stroke-width="2" stroke-linecap="round"/>
    <path d="M43.646 19.3135C46.2212 22.4037 53.3029 29.1249 61.0284 31.288" stroke="#336CFF" stroke-width="2" stroke-linecap="round"/>
    <path d="M45.018 194.346C44.19 194.418 43.308 194.49 42.372 194.562V193.14H45.18V192.078H42.372V190.89H41.184V192.078H39.096C39.546 191.484 39.978 190.8 40.374 190.044H45.306V188.892H40.914C41.058 188.568 41.184 188.244 41.31 187.92L40.014 187.704C39.87 188.1 39.708 188.496 39.546 188.892H37.044V190.044H38.97C38.538 190.854 38.052 191.538 37.548 192.114L37.836 193.14H41.184V194.634C39.96 194.706 38.646 194.76 37.278 194.832L37.44 195.984C38.736 195.912 39.996 195.822 41.184 195.75V197.046H42.372V195.66C43.29 195.57 44.172 195.48 45.018 195.408V194.346ZM47.538 193.158H49.878V197.064H51.12V193.158H53.028V192.024H47.628V190.152C49.572 189.936 51.192 189.522 52.524 188.946L51.696 187.974C50.436 188.55 48.672 188.946 46.44 189.162V191.988C46.404 193.608 45.972 194.994 45.18 196.164L46.08 197.1C46.854 195.984 47.34 194.67 47.538 193.158ZM51.012 197.586H39.204V204.354H40.536V203.652H49.68V204.354H51.012V197.586ZM40.536 202.536V201.132H49.68V202.536H40.536ZM40.536 200.088V198.684H49.68V200.088H40.536ZM56.394 188.82V190.08H61.56V191.286C61.542 192.402 61.47 193.464 61.326 194.436H55.188V195.678H61.11C60.876 196.812 60.552 197.838 60.12 198.738C59.148 200.574 57.438 202.032 54.954 203.148L55.674 204.3C58.176 203.22 59.976 201.69 61.092 199.746C61.704 198.594 62.154 197.244 62.442 195.678H63.9V202.23C63.9 203.454 64.476 204.066 65.664 204.066H68.58C69.336 204.066 69.876 203.904 70.218 203.58C70.614 203.184 70.884 202.122 71.028 200.358L69.804 199.962C69.714 201.366 69.552 202.194 69.3 202.482C69.102 202.716 68.778 202.842 68.346 202.842H66.06C65.484 202.842 65.196 202.536 65.196 201.96V195.678H70.776V194.436H62.64C62.766 193.464 62.838 192.402 62.874 191.286V190.08H69.318V188.82H56.394ZM80.154 192.888H82.116V191.808H80.154V190.08C81.018 189.756 81.774 189.432 82.386 189.108L81.648 188.154C80.802 188.658 79.902 189.036 78.966 189.288V195.786H83.088V197.37H78.858V198.54H79.614C80.298 199.8 81.27 200.898 82.566 201.816C81.216 202.392 79.596 202.86 77.724 203.22L78.372 204.372C80.478 203.904 82.278 203.292 83.79 202.572C85.176 203.328 86.85 203.922 88.812 204.336L89.28 203.13C87.696 202.806 86.31 202.374 85.122 201.834C86.598 200.898 87.678 199.782 88.326 198.468V197.37H84.294V195.786H88.38V188.73H85.23V189.846H87.21V191.808H85.32V192.888H87.21V194.67H84.294V187.92H83.088V194.67H80.154V192.888ZM80.946 198.54H86.922C86.238 199.548 85.212 200.43 83.862 201.186C82.62 200.448 81.648 199.566 80.946 198.54ZM74.97 204.192C75.942 204.192 76.446 203.67 76.446 202.644V197.424C77.058 197.136 77.67 196.848 78.264 196.542V195.282C77.67 195.606 77.058 195.912 76.446 196.182V192.546H78.12V191.304H76.446V187.938H75.186V191.304H73.188V192.546H75.186V196.686C74.43 196.974 73.656 197.208 72.864 197.424L73.152 198.648C73.836 198.432 74.502 198.198 75.186 197.946V202.32C75.186 202.806 74.952 203.058 74.52 203.058C74.052 203.058 73.548 203.022 73.008 202.968L73.278 204.192H74.97ZM92.268 189.27V190.458H98.334V192.024H91.53V195.3H92.79V193.158H98.154C97.11 194.058 95.994 194.85 94.824 195.516C94.554 195.66 94.284 195.768 94.014 195.822L94.266 196.812C95.832 196.776 97.218 196.722 98.442 196.686C96.858 197.586 95.346 198.234 93.87 198.648C93.51 198.648 93.132 198.63 92.754 198.612L93.006 199.782C94.662 199.746 96.48 199.674 98.46 199.584V202.662C98.46 203.022 98.244 203.22 97.848 203.22C97.38 203.22 96.876 203.184 96.372 203.13L96.642 204.336H98.28C99.252 204.336 99.756 203.868 99.756 202.968V199.53C101.052 199.458 102.42 199.368 103.878 199.278C104.238 199.71 104.562 200.142 104.85 200.574L105.822 199.872C105.12 198.9 104.112 197.784 102.798 196.506L101.862 197.1C102.294 197.532 102.708 197.946 103.104 198.378C100.764 198.54 98.442 198.666 96.102 198.738C98.55 197.874 100.818 196.668 102.942 195.084L101.898 194.382C101.25 194.85 100.602 195.3 99.972 195.732C98.964 195.804 97.614 195.84 95.958 195.876C97.128 195.246 98.244 194.508 99.324 193.644L98.334 193.158H105.21V195.318H106.47V192.024H99.666V190.458H105.732V189.27H99.666V187.848H98.334V189.27H92.268ZM101.664 200.484L101.016 201.438C102.744 202.068 104.436 202.932 106.092 204.012L106.758 202.968C105.228 201.996 103.536 201.168 101.664 200.484ZM95.994 200.448C94.716 201.42 93.096 202.212 91.134 202.806L91.674 203.958C93.708 203.256 95.4 202.374 96.75 201.294L95.994 200.448ZM115.416 200.754C113.58 201.42 111.456 201.96 109.008 202.356L109.17 203.616C111.51 203.184 113.58 202.644 115.416 201.978V200.754ZM112.086 187.794C111.366 189.936 110.502 191.826 109.494 193.482C109.332 193.716 109.152 193.878 108.954 193.968L109.278 195.156C110.322 195.012 111.348 194.868 112.374 194.706C111.366 196.398 110.52 197.586 109.836 198.288C109.674 198.432 109.476 198.558 109.242 198.666L109.584 199.836C111.384 199.602 113.256 199.152 115.2 198.486V197.334C113.868 197.784 112.518 198.144 111.15 198.414C112.248 197.118 113.616 194.958 115.254 191.916L114.12 191.502C113.76 192.186 113.4 192.852 113.058 193.5C112.194 193.644 111.348 193.77 110.502 193.878C111.438 192.474 112.374 190.602 113.292 188.262L112.086 187.794ZM115.2 190.08V191.34H119.502V194.004H115.794V195.264H124.578V194.004H120.816V191.34H125.1V190.08H120.816V187.902H119.502V190.08H115.2ZM124.056 197.064H116.37V204.3H117.648V203.436H122.796V204.3H124.056V197.064ZM117.648 202.212V198.288H122.796V202.212H117.648ZM128.952 188.568V195.534H134.334V197.172H127.17V198.396H133.164C131.85 200.124 129.726 201.546 126.792 202.662L127.53 203.85C130.662 202.428 132.894 200.61 134.262 198.396H134.334V204.336H135.666V198.396H135.756C137.016 200.412 139.212 202.23 142.344 203.868L143.226 202.734C140.238 201.474 138.096 200.016 136.818 198.396H142.83V197.172H135.666V195.534H140.958V188.568H128.952ZM139.68 194.4H135.666V192.654H139.68V194.4ZM134.334 194.4H130.248V192.654H134.334V194.4ZM130.248 191.52V189.72H134.334V191.52H130.248ZM135.666 189.72H139.68V191.52H135.666V189.72Z" fill="#282B2E"/>
    <defs>
        <filter id="filter0_d_321_94643" x="17.0044" y="28" width="145.11" height="145.11" filterUnits="userSpaceOnUse" color-interpolation-filters="sRGB">
            <feFlood flood-opacity="0" result="BackgroundImageFix"/>
            <feColorMatrix in="SourceAlpha" type="matrix" values="0 0 0 0 0 0 0 0 0 0 0 0 0 0 0 0 0 0 127 0" result="hardAlpha"/>
            <feOffset dy="5"/>
            <feGaussianBlur stdDeviation="7.5"/>
            <feComposite in2="hardAlpha" operator="out"/>
            <feColorMatrix type="matrix" values="0 0 0 0 0 0 0 0 0 0 0 0 0 0 0 0 0 0 0.15 0"/>
            <feBlend mode="normal" in2="BackgroundImageFix" result="effect1_dropShadow_321_94643"/>
            <feBlend mode="normal" in="SourceGraphic" in2="effect1_dropShadow_321_94643" result="shape"/>
        </filter>
    </defs>
</svg>
