<svg width="18" height="18" viewBox="0 0 18 18" fill="none" xmlns="http://www.w3.org/2000/svg">
    <path d="M8.02856 15.9331C8.34606 15.9772 8.67037 16 9 16C12.866 16 16 12.866 16 9C16 5.13401 12.866 2 9 2C5.13401 2 2 5.13401 2 9C2 10.0733 2.24155 11.0902 2.67326 11.9992V11.9992C3.17873 13.0636 4.72866 13.0299 5.43634 12.0878C5.71053 11.7227 5.93043 11.4337 5.98778 11.3681C6.721 10.5296 7.79865 10 9 10C10.5048 10 11.8155 10.8309 12.4983 12.0589" stroke="#336CFF" stroke-width="1.5" stroke-linecap="round" stroke-linejoin="round"/>
    <circle cx="9" cy="8" r="2" stroke="#F5991B" stroke-width="1.5"/>
</svg>
